<mxfile host="app.diagrams.net" modified="2023-02-21T07:04:51.842Z" agent="5.0 (Windows NT 10.0; WOW64) AppleWebKit/537.36 (KHTML, like Gecko) Chrome/86.0.4240.198 Safari/537.36" etag="m85lZ-RG_7pd2PZ4wR2F" version="20.8.20" type="github">
  <diagram id="aYU08qvSdbatKfGh7LU7" name="第 1 页">
    <mxGraphModel dx="1434" dy="763" grid="1" gridSize="10" guides="1" tooltips="1" connect="1" arrows="1" fold="1" page="1" pageScale="1" pageWidth="827" pageHeight="1169" math="0" shadow="0">
      <root>
        <mxCell id="0" />
        <mxCell id="1" parent="0" />
        <mxCell id="ZxbG_u4TmR6WHmVr4kCk-6" value="监听" style="edgeStyle=orthogonalEdgeStyle;rounded=0;orthogonalLoop=1;jettySize=auto;html=1;" edge="1" parent="1" source="AAbSFF_3w6VQspWgnhy2-5" target="ZxbG_u4TmR6WHmVr4kCk-3">
          <mxGeometry relative="1" as="geometry" />
        </mxCell>
        <mxCell id="ZxbG_u4TmR6WHmVr4kCk-7" style="rounded=0;orthogonalLoop=1;jettySize=auto;html=1;entryX=1;entryY=0.25;entryDx=0;entryDy=0;entryPerimeter=0;" edge="1" parent="1" source="AAbSFF_3w6VQspWgnhy2-5" target="9hXP-JQpE5FFyOFFZCri-10">
          <mxGeometry relative="1" as="geometry">
            <mxPoint x="170" y="350" as="targetPoint" />
          </mxGeometry>
        </mxCell>
        <mxCell id="ZxbG_u4TmR6WHmVr4kCk-8" value="服务状态变更通知" style="edgeLabel;html=1;align=center;verticalAlign=middle;resizable=0;points=[];" vertex="1" connectable="0" parent="ZxbG_u4TmR6WHmVr4kCk-7">
          <mxGeometry x="0.0409" y="-2" relative="1" as="geometry">
            <mxPoint as="offset" />
          </mxGeometry>
        </mxCell>
        <mxCell id="AAbSFF_3w6VQspWgnhy2-5" value="Attribute" style="ellipse;whiteSpace=wrap;html=1;align=center;dashed=1;" parent="1" vertex="1">
          <mxGeometry x="414" y="80" width="370" height="130" as="geometry" />
        </mxCell>
        <mxCell id="AAbSFF_3w6VQspWgnhy2-6" value="&lt;span style=&quot;color: rgb(77, 77, 77); font-family: 微软雅黑; font-size: 13px; background-color: rgba(255, 255, 255, 0.01);&quot;&gt;Sentinel-1&lt;/span&gt;" style="rounded=0;whiteSpace=wrap;html=1;" parent="1" vertex="1">
          <mxGeometry x="430" y="117.5" width="80" height="55" as="geometry" />
        </mxCell>
        <mxCell id="AAbSFF_3w6VQspWgnhy2-7" value="&lt;span style=&quot;color: rgb(77, 77, 77); font-family: 微软雅黑; font-size: 13px; background-color: rgba(255, 255, 255, 0.01);&quot;&gt;Sentinel-2&lt;/span&gt;" style="rounded=0;whiteSpace=wrap;html=1;" parent="1" vertex="1">
          <mxGeometry x="540" y="117.5" width="80" height="55" as="geometry" />
        </mxCell>
        <mxCell id="AAbSFF_3w6VQspWgnhy2-8" value="&lt;span style=&quot;color: rgb(77, 77, 77); font-family: 微软雅黑; font-size: 13px; background-color: rgba(255, 255, 255, 0.01);&quot;&gt;Sentinel-3&lt;/span&gt;" style="rounded=0;whiteSpace=wrap;html=1;" parent="1" vertex="1">
          <mxGeometry x="650" y="117.5" width="80" height="55" as="geometry" />
        </mxCell>
        <mxCell id="AAbSFF_3w6VQspWgnhy2-9" value="master" style="ellipse;whiteSpace=wrap;html=1;" parent="1" vertex="1">
          <mxGeometry x="430" y="350" width="120" height="80" as="geometry" />
        </mxCell>
        <mxCell id="AAbSFF_3w6VQspWgnhy2-10" value="slave1" style="ellipse;whiteSpace=wrap;html=1;" parent="1" vertex="1">
          <mxGeometry x="650" y="470" width="120" height="80" as="geometry" />
        </mxCell>
        <mxCell id="AAbSFF_3w6VQspWgnhy2-11" value="slave2" style="ellipse;whiteSpace=wrap;html=1;" parent="1" vertex="1">
          <mxGeometry x="640" y="280" width="120" height="80" as="geometry" />
        </mxCell>
        <mxCell id="AAbSFF_3w6VQspWgnhy2-17" value="复制" style="endArrow=classic;html=1;rounded=0;exitX=1;exitY=0.588;exitDx=0;exitDy=0;exitPerimeter=0;" parent="1" source="AAbSFF_3w6VQspWgnhy2-9" target="AAbSFF_3w6VQspWgnhy2-10" edge="1">
          <mxGeometry width="50" height="50" relative="1" as="geometry">
            <mxPoint x="280" y="390" as="sourcePoint" />
            <mxPoint x="330" y="340" as="targetPoint" />
          </mxGeometry>
        </mxCell>
        <mxCell id="AAbSFF_3w6VQspWgnhy2-25" value="一主两从三哨兵" style="text;html=1;align=center;verticalAlign=middle;resizable=0;points=[];autosize=1;strokeColor=none;fillColor=none;" parent="1" vertex="1">
          <mxGeometry x="330" y="570" width="110" height="30" as="geometry" />
        </mxCell>
        <mxCell id="AAbSFF_3w6VQspWgnhy2-26" value="&lt;div&gt;&lt;b&gt;&lt;font style=&quot;font-size: 18px;&quot;&gt;主从架构简介: 部署多台redis节点，其中只有一台节点是主节点（master），其他的节点都是从节点（slave）.&lt;/font&gt;&lt;/b&gt;&lt;/div&gt;&lt;div&gt;&lt;b&gt;&lt;font size=&quot;3&quot;&gt;只有master节点提供数据的事务性操作（增删改），slave节点只提供读操作。slave节点的数据是从master节点同步过来的.&lt;/font&gt;&lt;/b&gt;&lt;/div&gt;&lt;div&gt;&lt;b&gt;&lt;font size=&quot;3&quot;&gt;主从复制风暴:出现某一瞬间或者某一段时间，有多个的从节点要从主节点复制数据，主节点压力过大，所以我们讲slave2的同步由master改为slave1，以缓解主节点压力，&lt;/font&gt;&lt;/b&gt;&lt;/div&gt;&lt;div&gt;&lt;b&gt;&lt;font size=&quot;3&quot;&gt;哨兵架构简介: 主从架构无法实现高可用当主服务器宕机后，需要手动把一台从服务器切换为主服务器，这就需要人工干预，既费时费力，还会造成一段时间内服务不可用.&lt;/font&gt;&lt;/b&gt;&lt;/div&gt;&lt;div&gt;&lt;b&gt;&lt;font size=&quot;3&quot;&gt;配置哨兵节点则可以通过发送命令，让 Redis 服务器返回监测其运行状态，包括主服务器和从服务器当哨兵监测到 master 宕机，会自动将 slave 切换成 master，&lt;/font&gt;&lt;/b&gt;&lt;/div&gt;&lt;div&gt;&lt;b&gt;&lt;font size=&quot;3&quot;&gt;然后通过发布订阅模式通知到其他的从服务器，修改配置文件，让它们切换主机. 哨兵节点是一个独立的进程，作为进程，它会独立运行,不会参与服务读写,只做监控使用&lt;/font&gt;&lt;/b&gt;&lt;/div&gt;&lt;div&gt;&lt;b&gt;&lt;font size=&quot;3&quot;&gt;生产环境中一个哨兵进程对 Redis 服务器进行监控，也可能出现问题，为了处理这个问题，还可以使用多个哨兵的监控，&lt;/font&gt;&lt;/b&gt;&lt;/div&gt;&lt;div&gt;&lt;b&gt;&lt;font size=&quot;3&quot;&gt;而各个哨兵之间还会相互监控，这样就变为了多个哨兵模式。多个哨兵不仅监控各个 Redis 服务器，而且哨兵之间互相监控&lt;/font&gt;&lt;/b&gt;&lt;/div&gt;" style="rounded=0;whiteSpace=wrap;html=1;align=left;" parent="1" vertex="1">
          <mxGeometry x="14.25" y="600" width="868" height="382.5" as="geometry" />
        </mxCell>
        <mxCell id="9hXP-JQpE5FFyOFFZCri-1" value="&lt;font style=&quot;font-size: 18px;&quot;&gt;&lt;b&gt;redis哨兵+主从架构图&lt;/b&gt;&lt;/font&gt;" style="text;html=1;align=center;verticalAlign=middle;resizable=0;points=[];autosize=1;strokeColor=none;fillColor=none;" parent="1" vertex="1">
          <mxGeometry x="285" y="25" width="200" height="30" as="geometry" />
        </mxCell>
        <mxCell id="9hXP-JQpE5FFyOFFZCri-2" value="&lt;span style=&quot;text-align: left;&quot;&gt;一主两从三哨兵&lt;/span&gt;&lt;br style=&quot;border-color: var(--border-color); text-align: left;&quot;&gt;&lt;span style=&quot;text-align: left;&quot;&gt;master负责读写,slave只提供读和备份,sentinel集群本身不存储数据,只负责监控master,slave运行状态,在master服务异常后实现slave晋升为master继续工作,单台master支持10w+并发&lt;/span&gt;" style="text;html=1;strokeColor=none;fillColor=none;align=center;verticalAlign=middle;whiteSpace=wrap;rounded=0;fontSize=14;fontColor=#000000;" parent="1" vertex="1">
          <mxGeometry x="910" y="130" width="330" height="60" as="geometry" />
        </mxCell>
        <mxCell id="9hXP-JQpE5FFyOFFZCri-10" value="redisClient" style="outlineConnect=0;dashed=0;verticalLabelPosition=bottom;verticalAlign=top;align=center;html=1;shape=mxgraph.aws3.management_console;fillColor=#D2D3D3;gradientColor=none;fontSize=14;fontColor=#000000;" parent="1" vertex="1">
          <mxGeometry x="120" y="350" width="70" height="60" as="geometry" />
        </mxCell>
        <mxCell id="ZxbG_u4TmR6WHmVr4kCk-10" value="读写" style="rounded=0;orthogonalLoop=1;jettySize=auto;html=1;entryX=0;entryY=0.5;entryDx=0;entryDy=0;" edge="1" parent="1" source="9hXP-JQpE5FFyOFFZCri-10" target="AAbSFF_3w6VQspWgnhy2-9">
          <mxGeometry relative="1" as="geometry">
            <mxPoint x="170" y="350" as="sourcePoint" />
            <mxPoint x="400" y="360" as="targetPoint" />
          </mxGeometry>
        </mxCell>
        <mxCell id="ZxbG_u4TmR6WHmVr4kCk-11" value="只读" style="rounded=0;orthogonalLoop=1;jettySize=auto;html=1;entryX=0;entryY=0;entryDx=0;entryDy=0;exitX=1;exitY=0.5;exitDx=0;exitDy=0;exitPerimeter=0;" edge="1" parent="1" source="9hXP-JQpE5FFyOFFZCri-10" target="AAbSFF_3w6VQspWgnhy2-11">
          <mxGeometry relative="1" as="geometry">
            <mxPoint x="170" y="310" as="sourcePoint" />
            <mxPoint x="420" y="410" as="targetPoint" />
          </mxGeometry>
        </mxCell>
        <mxCell id="ZxbG_u4TmR6WHmVr4kCk-12" value="只读" style="rounded=0;orthogonalLoop=1;jettySize=auto;html=1;entryX=0;entryY=0.5;entryDx=0;entryDy=0;" edge="1" parent="1" source="9hXP-JQpE5FFyOFFZCri-10" target="AAbSFF_3w6VQspWgnhy2-10">
          <mxGeometry relative="1" as="geometry">
            <mxPoint x="180" y="345" as="sourcePoint" />
            <mxPoint x="440" y="400" as="targetPoint" />
          </mxGeometry>
        </mxCell>
        <mxCell id="ZxbG_u4TmR6WHmVr4kCk-3" value="" style="ellipse;whiteSpace=wrap;html=1;align=center;dashed=1;fillColor=none;" vertex="1" parent="1">
          <mxGeometry x="339" y="260" width="520" height="310" as="geometry" />
        </mxCell>
        <mxCell id="ZxbG_u4TmR6WHmVr4kCk-16" value="复制" style="endArrow=classic;html=1;rounded=0;entryX=0.567;entryY=1.063;entryDx=0;entryDy=0;entryPerimeter=0;exitX=0.5;exitY=0;exitDx=0;exitDy=0;" edge="1" parent="1" source="AAbSFF_3w6VQspWgnhy2-10" target="AAbSFF_3w6VQspWgnhy2-11">
          <mxGeometry width="50" height="50" relative="1" as="geometry">
            <mxPoint x="560" y="390" as="sourcePoint" />
            <mxPoint x="655" y="464" as="targetPoint" />
          </mxGeometry>
        </mxCell>
      </root>
    </mxGraphModel>
  </diagram>
</mxfile>
